<?xml version="1.0" encoding="UTF-8"?>
<svg xmlns="http://www.w3.org/2000/svg" fill="#ffffff" viewBox="-0.08 -0.08 155.08 50.14"><path d="M117.518 21.127v-2.72c-5.078-.046-13.831-.946-13.839 5.709a5.01 5.01 0 005.2 5.176c4.516 0 8.637-3.616 8.637-8.166m-12.577-9.285h-8.061v-.587c0-6.261 5.633-10.91 14.421-10.91 8.934 0 14.275 5.235 14.275 12.524v22.259h-4.812l-3.244-4.892c-1.554 2.593-4.807 5.381-10.634 5.381-6.461.001-11.166-4.207-11.166-10.371 0-7.68 5.729-11.056 14.372-11.056h7.428v-1.321c0-2.886-2.137-5.821-6.362-5.821-3.641 0-6.215 1.761-6.215 4.207zM21.8 21.127v-2.72c-5.077-.048-13.83-.948-13.837 5.709a5.01 5.01 0 005.2 5.176c4.516 0 8.639-3.616 8.639-8.166M9.225 11.841H1.164v-.587C1.164 4.992 6.8.344 15.585.344c8.934 0 14.275 5.235 14.275 12.524v22.259h-4.812L21.8 30.235c-1.554 2.593-4.807 5.381-10.634 5.381C4.709 35.617 0 31.409 0 25.245c0-7.681 5.729-11.056 14.372-11.056H21.8v-1.321c0-2.886-2.137-5.821-6.362-5.821-3.641 0-6.215 1.761-6.215 4.207zm32.972-3.573v5.822h14.214v7.228H42.197v13.807h-8.113V.881h24.472v7.387zm104.839 17.124c0-2.251-3.35-3.375-7.04-4.6-5.924-2.054-10.828-3.962-10.828-10.518 0-5.528 4.419-9.931 12.673-9.931 6.311 0 12.333 4.012 13.11 11.057h-8.109c-.243-2.4-2.574-3.767-5.2-3.767-3.155 0-4.516 1.076-4.516 2.593 0 1.957 2.866 2.837 5.681 3.815 6.9 2.348 12.189 4.6 12.189 11.007 0 6.751-5.827 10.567-12.819 10.567-7.234 0-12.964-4.257-13.789-11.3h8.109c.388 2.74 2.864 4.012 5.972 4.012 2.817 0 4.565-.929 4.565-2.935M69.247 7.954C81.532 7.83 87.42 16.6 87.42 19.182c-.232 5.772-11.289 8.441-17.97 9.32.01-.659-.187-15.861-.2-20.548m24.43 11.228C93.667 16.249 92.758 8.759 78 1.87A21.894 21.894 0 0066.72.152c-.723.107-4.678.964-4.776 1.832s-.47 14.052-.242 15.984.022 9.931.016 12.5c0 2.658 1.929 4.542 4.982 5.161.438.087 4.742 1.275 11.3-.7 14.72-4.015 15.692-12.813 15.68-15.747M1.938 49.115h1.4a3.424 3.424 0 001.144-.158 1.4 1.4 0 00.932-1.527v-.013c0-1.242-.756-1.688-2.144-1.688H1.938zM3.3 44.989a4.513 4.513 0 011.565.247 2.1 2.1 0 011.4 2.188v.019a2.485 2.485 0 01-.353 1.4 2.815 2.815 0 01-2.53 1.02H1.108v-4.874zm5.971 4.873v-4.873h4.559v.721h-3.749v1.384h3.171v.714h-3.171v1.309h3.885v.746zm8.414 0h-.815v-4.873h.8l2.115 2.261 2.17-2.261h.756v4.874h-.817v-3.716l-2.089 2.146h-.089l-2.034-2.139zm9.606-1.918h2.2l-1.115-2.175zm-.347.7l-.605 1.22h-.912l2.51-4.874h.878l2.551 4.874h-.9l-.626-1.22zm7.018.431h1.307V45.75h-1.307v-.761h3.415v.761h-1.306v3.325h1.306v.788h-3.415zm7.231.787h-.816v-4.873h.854l3.219 3.525.19.239v-3.764h.81v4.874h-.8l-3.272-3.594-.184-.228zm12.072-.061a1.866 1.866 0 01-1.337-1.659h.906c.156.843.788 1.117 2 1.117 1.109 0 1.579-.26 1.579-.768a.53.53 0 00-.19-.446 4.278 4.278 0 00-1.831-.294 6.751 6.751 0 01-1.246-.186 1.128 1.128 0 01-.98-1.192c0-.913.775-1.495 2.342-1.495 1.639 0 2.531.528 2.728 1.659h-.891c-.116-.7-.775-.939-1.851-.939-1.055 0-1.484.268-1.484.755a.464.464 0 00.15.37c.19.184.668.26 1.606.315a7.605 7.605 0 011.408.186c.742.184 1.083.534 1.083 1.207 0 .995-.755 1.57-2.443 1.57a4.868 4.868 0 01-1.551-.2m6.947.061v-4.873h4.559v.721H61.02v1.384h3.168v.714H61.02v1.309h3.885v.746zm10.91-2.507c.456-.082.727-.3.727-.769v-.055c0-.651-.462-.815-1.49-.815h-1.714v1.694h1.681a5.645 5.645 0 00.8-.054m-2.477 2.507h-.836v-4.874h2.557c1.668 0 2.347.46 2.347 1.494a1.21 1.21 0 01-1.135 1.3c.748.158 1.048.562 1.048 1.46v.309a.348.348 0 00.115.309h-.891c-.089-.047-.109-.184-.109-.316v-.3a1.452 1.452 0 00-.122-.663c-.17-.33-.55-.447-1.253-.447h-1.725zm8.493-1.919h2.2l-1.118-2.175zm-.347.7l-.605 1.22h-.912l2.51-4.874h.876l2.551 4.874h-.9l-.626-1.22zm11.635 1.218h-.829v-4.873h4.435v.753h-3.606v1.5h3.449v.753h-3.449zm10.164-.812a1.506 1.506 0 00.973-1.57 1.719 1.719 0 00-2.017-1.83c-1.231 0-2 .562-2 1.823v.007a1.747 1.747 0 00.251.98 1.943 1.943 0 001.742.768 2.9 2.9 0 001.054-.178m-2.531.679a2.23 2.23 0 01-1.382-2.248v-.02a2.439 2.439 0 01.374-1.4 2.815 2.815 0 012.492-1.183 3.6 3.6 0 011.47.3 2.337 2.337 0 011.411 2.272v.035a2.4 2.4 0 01-.382 1.4 2.86 2.86 0 01-2.5 1.1 4.006 4.006 0 01-1.482-.268m10.689-2.362c.456-.082.727-.3.727-.769v-.055c0-.651-.462-.815-1.49-.815h-1.714v1.694h1.681a5.645 5.645 0 00.8-.054m-2.481 2.507h-.836v-4.874h2.557c1.668 0 2.347.46 2.347 1.494a1.21 1.21 0 01-1.135 1.3c.748.158 1.048.562 1.048 1.46v.309a.348.348 0 00.115.309h-.891c-.089-.047-.109-.184-.109-.316v-.3a1.452 1.452 0 00-.122-.663c-.17-.33-.55-.447-1.253-.447h-1.721zm7.993-.001h-.816v-4.873h.8l2.115 2.261 2.17-2.261h.764v4.874h-.817v-3.716l-2.089 2.146h-.094l-2.034-2.139zm9.604-1.918h2.2l-1.116-2.18zm-.347.7l-.605 1.22h-.914l2.51-4.874h.878l2.551 4.874h-.9l-.626-1.22zm8.373 1.218h-.858v-4.14h-1.877v-.733h4.7v.733h-1.966zm4.692-.787h1.311V45.75h-1.307v-.761h3.416v.761h-1.309v3.325h1.307v.788h-3.416zm9.83-.025a1.506 1.506 0 00.973-1.57 1.719 1.719 0 00-2.021-1.83c-1.231 0-2 .562-2 1.823v.007a1.747 1.747 0 00.251.98 1.943 1.943 0 001.742.768 2.9 2.9 0 001.054-.178m-2.531.679a2.23 2.23 0 01-1.382-2.248v-.02a2.439 2.439 0 01.374-1.4 2.815 2.815 0 012.49-1.18 3.6 3.6 0 011.47.3 2.337 2.337 0 011.415 2.276v.035a2.4 2.4 0 01-.382 1.4 2.86 2.86 0 01-2.5 1.1 4.006 4.006 0 01-1.482-.268m8.194.138h-.816v-4.873h.858l3.217 3.525.19.239v-3.764h.81v4.874h-.8l-3.28-3.591-.184-.228z" /></svg>